<svg width="100" height="105" viewBox="0 0 100 105" fill="none" xmlns="http://www.w3.org/2000/svg">
<path fill-rule="evenodd" clip-rule="evenodd" d="M17.2987 13.2645C19.1012 1.95659 30.7854 -0.157954 36.5647 0.121674C39.6968 1.91125 35.2596 9.62921 32.6495 13.2645C35.3527 14.0102 40.7589 16.3965 40.7589 19.9758C40.7589 23.5551 29.3871 25.3821 23.7013 25.8481C21.0168 38.3757 28.5482 42.6261 32.6495 43.1854C32.836 41.228 33.88 36.1386 36.5647 31.4408C39.2493 26.7429 45.14 33.3982 47.7498 37.3131C38.1304 49.8407 52.8764 66.7679 61.4518 73.6655C55.8592 86.1931 60.6129 93.0535 63.6889 94.9177C61.1722 98.0869 55.244 104.537 51.6646 104.985C48.0853 105.432 42.9028 96.0363 40.7589 91.2825C-5.5532 89.524 -10.9843 31.4408 17.2987 13.2645ZM68.6656 69.658C34.9697 37.3131 64.9939 31.534 82.4244 33.1186C83.4497 29.3901 86.4511 24.1703 90.2541 33.1186C93.3469 40.3957 94.4275 41.0446 95.8832 41.9187C96.665 42.3882 97.5549 42.9226 98.9228 44.5836C102.055 48.3866 97.6178 51.5744 95.0079 52.693C89.1915 78.8667 72.8236 85.783 65.3667 85.9694C65.6351 84.8015 66.2142 83.3073 66.8485 81.671C68.4264 77.6001 70.345 72.65 68.6656 69.658ZM71.2972 54.7839C73.9434 54.7839 76.0885 52.6388 76.0885 49.9926C76.0885 47.3465 73.9434 45.2013 71.2972 45.2013C68.6511 45.2013 66.506 47.3465 66.506 49.9926C66.506 52.6388 68.6511 54.7839 71.2972 54.7839Z" fill="#0085FF"/>
</svg>
